<svg height="512" viewBox="0 0 64 64" width="512" xmlns="http://www.w3.org/2000/svg"><g id="Filled_outline" data-name="Filled outline"><path d="m52 49v-46h-40v46l-9 12h58z" fill="#8ccae0"/><path d="m3 4h9v2h-9z" fill="#32b1cc"/><path d="m6 5h2v42h-2z" fill="#195c85"/><path d="m2 46h10v2h-10z" fill="#394d5c"/><path d="m52 4h9v2h-9z" fill="#32b1cc"/><path d="m56 5h2v42h-2z" fill="#195c85"/><path d="m52 46h10v2h-10z" fill="#394d5c"/><path d="m48 14v-1a2.768 2.768 0 0 0 -3-3h-1c-.593-1.9-2-3-5-3-2.227 0-4.518.932-5 3h-1a2.919 2.919 0 0 0 -3 3v1z" fill="#195c85"/><path d="m34 24v-1a2.768 2.768 0 0 0 -3-3h-1c-.593-1.9-2-3-5-3-2.227 0-4.518.932-5 3h-1a2.919 2.919 0 0 0 -3 3v1z" fill="#195c85"/><path d="m17 14h-2v-8h4v2h-2z" fill="#cfdfe8"/><path d="m53.2 58.6-6.2-8.267v-10.333h2v9.667l5.8 7.733z" fill="#cfdfe8"/><path d="m37 29h2v2h-2z" fill="#5a6470"/><path d="m41 26h2v2h-2z" fill="#5a6470"/><path d="m52 19.518a8.987 8.987 0 0 0 -12.6 2.672 7 7 0 0 1 4.41 13.218 8.95 8.95 0 0 0 8.19-.926z" fill="#f9bb4b"/><g fill="#8ccae0"><path d="m18 34h8v2h-8z"/><path d="m18 38h8v2h-8z"/><path d="m18 42h8v2h-8z"/><path d="m18 46h8v2h-8z"/></g><path d="m17 31h2v20h-2z" fill="#cfdfe8"/><path d="m25 31h2v20h-2z" fill="#cfdfe8"/><path d="m2 2h2v6h-2z" fill="#394d5c"/><path d="m60 2h2v6h-2z"/><path d="m60 4h-7v-1a1 1 0 0 0 -1-1h-40a1 1 0 0 0 -1 1v1h-7v-2h-2v6h2v-2h2v40h-4v2h9v.667l-8.8 11.733a1 1 0 0 0 .8 1.6h58a1 1 0 0 0 .8-1.6l-8.8-11.733v-.667h9v-2h-4v-40h2v2h2v-6h-2zm-9 29.928a7.968 7.968 0 0 1 -4.679 1.043 8 8 0 0 0 -4.638-13.942 7.988 7.988 0 0 1 9.317-.957zm-43 12.072v-40h3v40zm51 14h-54l7.8-10.4a1 1 0 0 0 .2-.6v-45h38v13.852a9.936 9.936 0 0 0 -12.442 3.8 1 1 0 0 0 1.072 1.509 6 6 0 0 1 3.779 11.329 1 1 0 0 0 .048 1.851 9.853 9.853 0 0 0 7.543-.2v12.859a1 1 0 0 0 .2.6zm-3-14h-3v-40h3z"/><path d="m30 15h18a1 1 0 0 0 1-1v-1a3.748 3.748 0 0 0 -4-4h-.311c-.909-2.017-2.778-3-5.689-3-2.73 0-4.878 1.153-5.712 3h-.288a3.913 3.913 0 0 0 -4 4v1a1 1 0 0 0 1 1zm3-4h1a1 1 0 0 0 .974-.772c.383-1.645 2.409-2.228 4.026-2.228 2.927 0 3.674 1.1 4.045 2.3a1 1 0 0 0 .955.7h1a1.793 1.793 0 0 1 2 2h-16a1.913 1.913 0 0 1 2-2z"/><path d="m31 19h-.311c-.909-2.017-2.778-3-5.689-3-2.73 0-4.878 1.153-5.712 3h-.288a3.913 3.913 0 0 0 -4 4v1a1 1 0 0 0 1 1h18a1 1 0 0 0 1-1v-1a3.748 3.748 0 0 0 -4-4zm-14 4a1.913 1.913 0 0 1 2-2h1a1 1 0 0 0 .974-.772c.383-1.645 2.409-2.228 4.026-2.228 2.927 0 3.674 1.1 4.045 2.3a1 1 0 0 0 .955.7h1a1.793 1.793 0 0 1 2 2z"/><path d="m17 8h2v-2h-4v8h2z"/><path d="m49 40h-2v10.333l6.2 8.267 1.6-1.2-5.8-7.733z"/><path d="m37 29h2v2h-2z"/><path d="m41 26h2v2h-2z"/><path d="m25 34h-6v-3h-2v20h2v-3h6v3h2v-20h-2zm0 2v2h-6v-2zm0 4v2h-6v-2zm-6 6v-2h6v2z"/></g></svg>