<svg height="512pt" viewBox="0 0 512 512" width="512pt" xmlns="http://www.w3.org/2000/svg"><path d="m7.515625 47.59375h496.96875v456.890625h-496.96875zm0 0" fill="#fbf"/><path d="m7.515625 47.59375h496.96875v110.214844h-496.96875zm0 0" fill="#a8e1f8"/><path d="m25.550781 47.59375v20.039062c0 27.625 22.472657 50.097657 50.097657 50.097657 19.804687 0 36.960937-11.554688 45.085937-28.277344 8.128906 16.722656 25.28125 28.277344 45.089844 28.277344 19.804687 0 36.960937-11.554688 45.085937-28.277344 8.128906 16.722656 25.28125 28.277344 45.089844 28.277344s36.960938-11.554688 45.089844-28.277344c8.125 16.722656 25.28125 28.277344 45.085937 28.277344 19.808594 0 36.960938-11.554688 45.089844-28.277344 8.125 16.722656 25.28125 28.277344 45.085937 28.277344 27.625 0 50.097657-22.472657 50.097657-50.097657v-20.039062zm0 0" fill="#75d2f5"/><path d="m256 87.671875c-11.066406 0-20.039062-8.972656-20.039062-20.039063v-40.078124c0-11.070313 8.972656-20.039063 20.039062-20.039063s20.039062 8.96875 20.039062 20.039063v40.078124c0 11.066407-8.972656 20.039063-20.039062 20.039063zm0 0" fill="#e3edf6"/><path d="m165.824219 87.671875c-11.066407 0-20.039063-8.972656-20.039063-20.039063v-40.078124c0-11.070313 8.972656-20.039063 20.039063-20.039063 11.066406 0 20.039062 8.96875 20.039062 20.039063v40.078124c0 11.066407-8.972656 20.039063-20.039062 20.039063zm0 0" fill="#e3edf6"/><path d="m75.648438 87.671875c-11.066407 0-20.039063-8.972656-20.039063-20.039063v-40.078124c0-11.070313 8.972656-20.039063 20.039063-20.039063 11.066406 0 20.039062 8.96875 20.039062 20.039063v40.078124c0 11.066407-8.972656 20.039063-20.039062 20.039063zm0 0" fill="#e3edf6"/><path d="m346.175781 87.671875c11.066407 0 20.039063-8.972656 20.039063-20.039063v-40.078124c0-11.070313-8.972656-20.039063-20.039063-20.039063-11.066406 0-20.039062 8.96875-20.039062 20.039063v40.078124c0 11.066407 8.972656 20.039063 20.039062 20.039063zm0 0" fill="#e3edf6"/><path d="m436.351562 87.671875c11.066407 0 20.039063-8.972656 20.039063-20.039063v-40.078124c0-11.070313-8.972656-20.039063-20.039063-20.039063-11.066406 0-20.039062 8.96875-20.039062 20.039063v40.078124c0 11.066407 8.972656 20.039063 20.039062 20.039063zm0 0" fill="#e3edf6"/><path d="m324.132812 504.484375v-71.136719l141.097657-159.070312c8.675781-9.785156 7.007812-24.921875-3.59375-32.578125-9.226563-6.664063-22.003907-5.230469-29.523438 3.3125l-111.988281 127.214843h-128.25l-111.988281-127.214843c-7.519531-8.542969-20.296875-9.976563-29.523438-3.316407-10.601562 7.660157-12.269531 22.796876-3.59375 32.578126l141.097657 159.074218v71.136719zm0 0" fill="#a8e1f8"/><path d="m278.042969 339.164062h-44.085938v33.0625c4.65625 7.238282 12.792969 12.023438 22.042969 12.023438s17.386719-4.785156 22.042969-12.023438zm0 0" fill="#ffb680"/><path d="m300.398438 310.90625c.445312-2.539062.691406-5.148438.691406-7.8125v-22.042969c0-24.902343-20.1875-45.089843-45.089844-45.089843-23.207031 0-42.3125 17.535156-44.804688 40.078124h62.839844zm0 0" fill="#bcbcc0"/><path d="m274.035156 276.039062h-62.839844c-.183593 1.644532-.285156 3.316407-.285156 5.011719v22.042969c0 24.898438 20.1875 45.085938 45.089844 45.085938 22.234375 0 40.695312-16.097657 44.398438-37.273438zm0 0" fill="#ffdaaa"/><path d="m83.664062 388.257812 12.382813 25.09375 27.695313 4.027344-20.039063 19.53125 4.730469 27.582032-24.769532-13.023438-24.769531 13.023438 4.730469-27.582032-20.039062-19.53125 27.691406-4.027344zm0 0" fill="#feef8f"/><path d="m359.203125 234.957031c0 11.070313-8.972656 20.039063-20.039063 20.039063-11.070312 0-20.039062-8.96875-20.039062-20.039063 0-11.066406 8.96875-20.039062 20.039062-20.039062 11.066407 0 20.039063 8.972656 20.039063 20.039062zm0 0" fill="#feef8f"/><path d="m256 57.613281c-11.066406 0-20.039062-8.972656-20.039062-20.039062v30.058593c0 11.066407 8.972656 20.039063 20.039062 20.039063s20.039062-8.972656 20.039062-20.039063v-30.058593c0 11.066406-8.972656 20.039062-20.039062 20.039062zm0 0" fill="#c5d9ec"/><path d="m165.824219 57.613281c-11.066407 0-20.039063-8.972656-20.039063-20.039062v30.058593c0 11.066407 8.972656 20.039063 20.039063 20.039063 11.066406 0 20.039062-8.972656 20.039062-20.039063v-30.058593c0 11.066406-8.972656 20.039062-20.039062 20.039062zm0 0" fill="#c5d9ec"/><path d="m75.648438 57.613281c-11.066407 0-20.039063-8.972656-20.039063-20.039062v30.058593c0 11.066407 8.972656 20.039063 20.039063 20.039063 11.066406 0 20.039062-8.972656 20.039062-20.039063v-30.058593c0 11.066406-8.972656 20.039062-20.039062 20.039062zm0 0" fill="#c5d9ec"/><path d="m346.175781 57.613281c-11.066406 0-20.039062-8.972656-20.039062-20.039062v30.058593c0 11.066407 8.972656 20.039063 20.039062 20.039063 11.066407 0 20.039063-8.972656 20.039063-20.039063v-30.058593c0 11.066406-8.972656 20.039062-20.039063 20.039062zm0 0" fill="#c5d9ec"/><path d="m436.351562 57.613281c-11.066406 0-20.039062-8.972656-20.039062-20.039062v30.058593c0 11.066407 8.972656 20.039063 20.039062 20.039063 11.066407 0 20.039063-8.972656 20.039063-20.039063v-30.058593c0 11.066406-8.972656 20.039062-20.039063 20.039062zm0 0" fill="#c5d9ec"/><path d="m79.886719 245.011719c-7.519531-8.542969-20.296875-9.976563-29.523438-3.316407-10.601562 7.660157-12.269531 22.796876-3.59375 32.578126l89.824219 101.269531 33.511719-28.042969zm0 0" fill="#ffdaaa"/><path d="m461.636719 241.695312c-9.226563-6.664062-22.003907-5.226562-29.523438 3.316407l-90.21875 102.488281 33.511719 28.042969 89.824219-101.269531c8.675781-9.78125 7.007812-24.917969-3.59375-32.578126zm0 0" fill="#ffdaaa"/><path d="m136.59375 375.542969 33.511719-28.042969-19.863281-22.570312-33.601563 28.117187zm0 0" fill="#ffb680"/><path d="m395.359375 353.042969-33.601563-28.113281-19.863281 22.570312 33.511719 28.042969zm0 0" fill="#ffb680"/><g fill="#fff"><path d="m293.574219 130.253906h-15.03125v-15.027344h15.03125zm-30.058594 0h-15.03125v-15.027344h15.03125zm-30.058594 0h-15.03125v-15.027344h15.03125zm0 0"/><path d="m148.289062 205.402344h15.03125v15.027344h-15.03125zm0 0"/><path d="m148.289062 255.5h15.03125v15.027344h-15.03125zm0 0"/><path d="m123.242188 230.449219h15.027343v15.03125h-15.027343zm0 0"/><path d="m173.339844 230.449219h15.027344v15.03125h-15.027344zm0 0"/><path d="m415.8125 392.765625h15.027344v15.03125h-15.027344zm0 0"/><path d="m415.8125 442.863281h15.027344v15.03125h-15.027344zm0 0"/><path d="m390.761719 417.816406h15.03125v15.027344h-15.03125zm0 0"/><path d="m440.859375 417.816406h15.03125v15.027344h-15.03125zm0 0"/><path d="m381.746094 227.445312h15.027344v15.027344h-15.027344zm0 0"/><path d="m331.648438 177.347656h15.027343v15.027344h-15.027343zm0 0"/><path d="m331.648438 277.542969h15.027343v15.027343h-15.027343zm0 0"/><path d="m363.957031 199.535156 10.625-10.625 10.628907 10.625-10.628907 10.628906zm0 0"/><path d="m293.109375 199.550781 10.628906-10.628906 10.625 10.628906-10.625 10.628907zm0 0"/><path d="m363.957031 270.40625 10.628907-10.628906 10.625 10.628906-10.625 10.625zm0 0"/></g><path d="m101.039062 406.484375-17.375-35.207031-17.375 35.207031-38.851562 5.644531 28.113281 27.40625-6.636719 38.691406 34.75-18.265624 34.75 18.265624-6.636718-38.691406 28.113281-27.40625zm-2.585937 44.269531-14.789063-7.773437-14.789062 7.773437 2.824219-16.46875-11.964844-11.660156 16.535156-2.402344 7.394531-14.984375 7.394532 14.984375 16.535156 2.402344-11.964844 11.660156zm0 0"/><path d="m339.164062 262.511719c15.191407 0 27.550782-12.359375 27.550782-27.554688 0-15.191406-12.359375-27.550781-27.550782-27.550781-15.195312 0-27.554687 12.359375-27.554687 27.550781 0 15.195313 12.359375 27.554688 27.554687 27.554688zm0-40.078125c6.90625 0 12.523438 5.617187 12.523438 12.523437 0 6.910157-5.617188 12.527344-12.523438 12.527344s-12.527343-5.617187-12.527343-12.527344c0-6.90625 5.621093-12.523437 12.527343-12.523437zm0 0"/><path d="m496.96875 496.96875h-165.320312v-60.769531l139.203124-156.9375c4.8125-5.425781 7.460938-12.398438 7.460938-19.632813 0-9.492187-4.589844-18.472656-12.277344-24.023437-5.078125-3.667969-11.070312-5.605469-17.324218-5.605469-8.511719 0-16.617188 3.660156-22.238282 10.042969l-38 43.171875 11.28125 9.929687 38-43.167969c2.765625-3.144531 6.761719-4.949218 10.957032-4.949218 3.078124 0 6.027343.957031 8.527343 2.761718 3.84375 2.777344 6.046875 7.089844 6.046875 11.839844 0 3.558594-1.308594 6.988282-3.675781 9.660156l-84.980469 95.804688-22.003906-18.410156 37.199219-42.257813-11.28125-9.929687-61.8125 70.214844h-31.171875v-18.132813c13.898437-9.476563 23.042968-25.429687 23.042968-43.484375v-22.042969c0-29.007812-23.597656-52.605469-52.601562-52.605469s-52.601562 23.597657-52.601562 52.605469v22.042969c0 18.054688 9.144531 34.007812 23.042968 43.484375v18.132813h-31.171875l-61.808593-70.214844-11.28125 9.929687 37.195312 42.253907-22.003906 18.414062-84.980469-95.804688c-2.367187-2.671874-3.671875-6.101562-3.671875-9.660156 0-4.75 2.203125-9.066406 6.046875-11.839844 2.5-1.804687 5.449219-2.761718 8.527344-2.761718 4.195312 0 8.1875 1.804687 10.957031 4.949218l38 43.167969 11.28125-9.929687-38-43.171875c-5.621094-6.382813-13.726562-10.042969-22.238281-10.042969-6.257813 0-12.25 1.9375-17.328125 5.605469-7.6875 5.550781-12.273438 14.53125-12.273438 24.023437 0 7.238282 2.648438 14.210938 7.457032 19.632813l139.203124 156.9375v60.769531h-165.320312v-61.617188h-15.03125v76.648438h512v-263.015625h-15.03125zm-240.96875-253.492188c20.71875 0 37.574219 16.855469 37.574219 37.574219v8.367188l-15.800781-20.894531h-57.191407c5.167969-14.578126 19.089844-25.046876 35.417969-25.046876zm-37.574219 59.617188v-19.539062h51.871094l22.03125 29.136718c-4.253906 16.082032-18.925781 27.972656-36.328125 27.972656-20.71875 0-37.574219-16.855468-37.574219-37.570312zm37.574219 52.601562c5.039062 0 9.910156-.726562 14.527344-2.058593v16.164062c-3.527344 4.371094-8.820313 6.933594-14.527344 6.933594s-10.996094-2.5625-14.527344-6.933594v-16.164062c4.617188 1.332031 9.488282 2.058593 14.527344 2.058593zm-108.652344 20.644532 21.960938-18.375 19.167968 21.777344h41.699219c6.363281 7.59375 15.742188 12.023437 25.824219 12.023437s19.460938-4.429687 25.824219-12.023437h41.695312l19.171875-21.777344 21.960938 18.375-48.035156 54.152344v66.476562h-121.234376v-66.476562zm0 0"/><path d="m463.90625 40.078125v-12.523437c0-15.195313-12.359375-27.554688-27.554688-27.554688-15.191406 0-27.554687 12.359375-27.554687 27.554688v12.523437h-35.066406v-12.523437c0-15.195313-12.363281-27.554688-27.554688-27.554688-15.191406 0-27.554687 12.359375-27.554687 27.554688v12.523437h-35.066406v-12.523437c0-15.195313-12.363282-27.554688-27.554688-27.554688-15.195312 0-27.554688 12.359375-27.554688 27.554688v12.523437h-35.066406v-12.523437c0-15.195313-12.363281-27.554688-27.554687-27.554688-15.195313 0-27.554688 12.359375-27.554688 27.554688v12.523437h-35.066406v-12.523437c0-15.195313-12.363281-27.554688-27.554687-27.554688-15.195313 0-27.554688 12.359375-27.554688 27.554688v12.523437h-48.09375v380.242187h15.03125v-254.996093h353.1875v-15.03125h-353.1875v-95.183594h33.0625v12.523437c0 15.191407 12.359375 27.554688 27.554688 27.554688 15.191406 0 27.554687-12.363281 27.554687-27.554688v-12.523437h35.066406v12.523437c0 15.191407 12.359375 27.554688 27.554688 27.554688 15.191406 0 27.554687-12.363281 27.554687-27.554688v-12.523437h35.066406v12.523437c0 15.191407 12.359376 27.554688 27.554688 27.554688 15.191406 0 27.554688-12.363281 27.554688-27.554688v-12.523437h35.066406v12.523437c0 15.191407 12.363281 27.554688 27.554687 27.554688 15.191407 0 27.554688-12.363281 27.554688-27.554688v-12.523437h35.066406v12.523437c0 15.191407 12.363281 27.554688 27.554687 27.554688 15.195313 0 27.554688-12.363281 27.554688-27.554688v-12.523437h33.0625v95.183594h-113.71875v15.03125h113.71875v68.632812h15.03125v-193.878906zm-375.734375 27.554687c0 6.90625-5.617187 12.523438-12.523437 12.523438s-12.523438-5.617188-12.523438-12.523438v-40.078124c0-6.90625 5.617188-12.523438 12.523438-12.523438s12.523437 5.617188 12.523437 12.523438zm90.175781 0c0 6.90625-5.617187 12.523438-12.523437 12.523438s-12.523438-5.617188-12.523438-12.523438v-40.078124c0-6.90625 5.617188-12.523438 12.523438-12.523438s12.523437 5.617188 12.523437 12.523438zm90.175782 0c0 6.90625-5.617188 12.523438-12.523438 12.523438s-12.523438-5.617188-12.523438-12.523438v-40.078124c0-6.90625 5.617188-12.523438 12.523438-12.523438s12.523438 5.617188 12.523438 12.523438zm90.175781 0c0 6.90625-5.617188 12.523438-12.523438 12.523438s-12.523437-5.617188-12.523437-12.523438v-40.078124c0-6.90625 5.617187-12.523438 12.523437-12.523438s12.523438 5.617188 12.523438 12.523438zm90.175781 0c0 6.90625-5.617188 12.523438-12.523438 12.523438s-12.523437-5.617188-12.523437-12.523438v-40.078124c0-6.90625 5.617187-12.523438 12.523437-12.523438s12.523438 5.617188 12.523438 12.523438zm0 0"/></svg>