<svg height="512" viewBox="0 0 64 64" width="512" xmlns="http://www.w3.org/2000/svg"><g id="cloud"><circle cx="58" cy="58" fill="#ffeb99" r="3"/><path d="m10 38a7 7 0 0 1 0-14h.84a9.994 9.994 0 0 1 17.3-9.8 12.991 12.991 0 1 1 23.09 9.8h2.77a7 7 0 0 1 0 14z" fill="#57a4ff"/><path d="m54 16a12.928 12.928 0 0 1 -2.77 8h-2a12.981 12.981 0 0 0 -9.25-20.96c.34-.03.68-.04 1.02-.04a13 13 0 0 1 13 13z" fill="#2488ff"/><path d="m61 31a7 7 0 0 1 -7 7h-2a7 7 0 0 0 0-14h2a7 7 0 0 1 7 7z" fill="#2488ff"/><path d="m46 48v4a2.006 2.006 0 0 1 -2 2h-24a2.006 2.006 0 0 1 -2-2v-4a2.006 2.006 0 0 1 2-2h24a2.006 2.006 0 0 1 2 2z" fill="#00d7df"/><path d="m46 38v2a2.006 2.006 0 0 1 -2 2h-24a2.006 2.006 0 0 1 -2-2v-4a2.006 2.006 0 0 1 2-2h24a2.006 2.006 0 0 1 2 2z" fill="#00d7df"/><path d="m46 24v4a2.006 2.006 0 0 1 -2 2h-24a2.006 2.006 0 0 1 -2-2v-4a2.006 2.006 0 0 1 2-2h24a2.006 2.006 0 0 1 2 2z" fill="#00d7df"/><path d="m46 48v4a2.006 2.006 0 0 1 -2 2h-2a2.006 2.006 0 0 0 2-2v-4a2.006 2.006 0 0 0 -2-2h2a2.006 2.006 0 0 1 2 2z" fill="#00b6bd"/><path d="m46 36v4a2.006 2.006 0 0 1 -2 2h-2a2.006 2.006 0 0 0 2-2v-4a2.006 2.006 0 0 0 -2-2h2a2.006 2.006 0 0 1 2 2z" fill="#00b6bd"/><path d="m46 24v4a2.006 2.006 0 0 1 -2 2h-2a2.006 2.006 0 0 0 2-2v-4a2.006 2.006 0 0 0 -2-2h2a2.006 2.006 0 0 1 2 2z" fill="#00b6bd"/><path d="m39 42h4v4h-4z" fill="#ffeb99"/><path d="m39 30h4v4h-4z" fill="#ffeb99"/><path d="m25 30h14v4h-14z" fill="#57a4ff"/><g fill="#ffeb99"><path d="m21 42h4v4h-4z"/><path d="m21 30h4v4h-4z"/><circle cx="6" cy="58" r="3"/></g><path d="m49 16h2a10.011 10.011 0 0 0 -10-10v2a8.009 8.009 0 0 1 8 8z"/><path d="m20 13a7.008 7.008 0 0 0 -7 7h2a5.006 5.006 0 0 1 5-5z"/><path d="m56 31h2a4 4 0 0 0 -4-4v2a2 2 0 0 1 2 2z"/><path d="m47 40v-1h7a8 8 0 0 0 0-16h-.885a13.805 13.805 0 0 0 1.885-7 13.992 13.992 0 0 0 -27.414-3.958 10.994 10.994 0 0 0 -18.586 7.958 10.881 10.881 0 0 0 .424 3.021 8 8 0 0 0 .576 15.979h7v1a3 3 0 0 0 3 3v2a3 3 0 0 0 -3 3v4a3 3 0 0 0 3 3h24a3 3 0 0 0 3-3v-4a3 3 0 0 0 -3-3v-2a3 3 0 0 0 3-3zm-37-3a6 6 0 0 1 0-12h.84a1 1 0 0 0 .915-1.4 8.9 8.9 0 0 1 -.755-3.6 9 9 0 0 1 16.326-5.219 1 1 0 0 0 1.8-.443 11.992 11.992 0 0 1 23.874 1.662 11.874 11.874 0 0 1 -2.558 7.384 1 1 0 0 0 .788 1.616h2.77a6 6 0 0 1 0 12h-7v-1a3 3 0 0 0 -3-3v-2a3 3 0 0 0 3-3v-4a3 3 0 0 0 -3-3h-24a3 3 0 0 0 -3 3v4a3 3 0 0 0 3 3v2a3 3 0 0 0 -3 3v1zm10-8a1 1 0 0 1 -1-1v-4a1 1 0 0 1 1-1h24a1 1 0 0 1 1 1v4a1 1 0 0 1 -1 1zm4 2v2h-2v-2zm2 0h12v2h-12zm14 0h2v2h-2zm-21 9v-4a1 1 0 0 1 1-1h24a1 1 0 0 1 1 1v4a1 1 0 0 1 -1 1h-24a1 1 0 0 1 -1-1zm7 5v-2h12v2zm-4-2h2v2h-2zm23 5v4a1 1 0 0 1 -1 1h-24a1 1 0 0 1 -1-1v-4a1 1 0 0 1 1-1h24a1 1 0 0 1 1 1zm-3-3h-2v-2h2z"/><path d="m21 37h2v2h-2z"/><path d="m25 37h2v2h-2z"/><path d="m29 37h2v2h-2z"/><path d="m21 25h2v2h-2z"/><path d="m25 25h2v2h-2z"/><path d="m29 25h2v2h-2z"/><path d="m21 49h2v2h-2z"/><path d="m25 49h2v2h-2z"/><path d="m29 49h2v2h-2z"/><path d="m58 54a4 4 0 0 0 -3.858 3h-2.142v-16h-2v17a1 1 0 0 0 1 1h3.142a3.993 3.993 0 1 0 3.858-5zm0 6a2 2 0 1 1 2-2 2 2 0 0 1 -2 2z"/><path d="m12 57h-2.142a4 4 0 1 0 0 2h3.142a1 1 0 0 0 1-1v-17h-2zm-6 3a2 2 0 1 1 2-2 2 2 0 0 1 -2 2z"/></g></svg>