<svg id="flat" enable-background="new 0 0 512 512" height="512" viewBox="0 0 512 512" width="512" xmlns="http://www.w3.org/2000/svg"><path d="m360 104v56l-48 48v96h-32v-200z" fill="#efeeef"/><path d="m248 272h-24v16c0 11.199707-1.9199219 21.9199219-5.4399414 31.8398438-13.1201172 37.3598632-48.6401367 64.1601562-90.5600586 64.1601562s-77.4399414-26.800293-90.5600586-64.1601563c-3.5200195-9.9199218-5.4399414-20.6401367-5.4399414-31.8398437v-16h72c39.7597656 0 72-32.2402344 72-72 0 19.8398438 8.0800781 37.9199219 21.1201172 50.8798828 12.9599609 13.0400391 31.0400391 21.1201172 50.8798828 21.1201172z" fill="#fac8b2"/><path d="m248 272h-24v16c0 11.1999512-1.9199219 21.9199219-5.4399414 31.8398438-13.1201172 37.3601074-48.6401367 64.1601562-90.5600586 64.1601562-30.6201172 0-57.8200684-14.2900391-75.3598633-36.5600586 16.3098145 12.880127 36.9199219 20.5600586 59.3598633 20.5600586 41.9199219 0 77.4399414-26.8000488 90.5600586-64.1601563 3.5200195-9.9199218 5.4399414-20.6398925 5.4399414-31.8398437v-12.1499023c11.4299316 7.6699218 25.2299805 12.1499023 40 12.1499023z" fill="#f4b7a2"/><path d="m344 400v40c0 35.3462219-28.6537781 64-64 64h-16.0000305c-35.3462067 0-63.9999847-28.6537781-63.9999847-63.9999695l-.0000153-.0000305v64h-191.9999695v-80c0-17.6731262 14.3268871-32 32-32h48v32l40-40 40 40v-32h48c17.673111 0 32 14.3268738 32 32v8.0000305c0 13.2548218 10.7451477 23.9999695 23.9999695 23.9999695h.000061c13.2548218 0 23.9999695-10.7451477 23.9999695-23.9999695v-32.0000305z" fill="#00587e"/><path d="m88 296c-4.4179688 0-8-3.5820313-8-8v-8c0-4.4179688 3.5820313-8 8-8s8 3.5820313 8 8v8c0 4.4179688-3.5820312 8-8 8z" fill="#683b11"/><path d="m168 296c-4.4179688 0-8-3.5820313-8-8v-8c0-4.4179688 3.5820313-8 8-8s8 3.5820313 8 8v8c0 4.4179688-3.5820312 8-8 8z" fill="#683b11"/><path d="m128 336c-13.2333984 0-24-10.7666016-24-24 0-4.4179688 3.5820313-8 8-8s8 3.5820313 8 8c0 4.4111328 3.5888672 8 8 8s8-3.5888672 8-8c0-4.4179688 3.5820313-8 8-8s8 3.5820313 8 8c0 13.2333984-10.7666016 24-24 24z" fill="#f0615f"/><path d="m248 272v16c0 16.7998047-12.9599609 30.5600586-29.4399414 31.8398438 3.5200195-9.9199219 5.4399414-20.6401368 5.4399414-31.8398438v-16z" fill="#eaaa94"/><path d="m37.4399414 319.8398438c-16.4799805-1.2797852-29.4399414-15.0400391-29.4399414-31.8398438v-16h24v16c0 11.199707 1.9199219 21.9199219 5.4399414 31.8398438z" fill="#eaaa94"/><circle cx="72" cy="328" fill="#f05a29" r="16"/><circle cx="184" cy="328" fill="#f05a29" r="16"/><path d="m127.9999008 384-39.9999008 40v-40z" fill="#efeeef"/><path d="m128.0000916 384 39.9999084 40v-40z" fill="#efeeef"/><path d="m128.0000916 384-16.0000916 16-16 64 32 40 32-40-16-64z" fill="#e22526"/><path d="m64 440v64h-16v-64c0-4.4199219 3.5800781-8 8-8s8 3.5800781 8 8z" fill="#04475e"/><path d="m208 440v64h-16v-64c0-4.4199219 3.5800781-8 8-8s8 3.5800781 8 8z" fill="#04475e"/><path d="m248 240v32c-19.8398438 0-37.9199219-8.0800781-50.8798828-21.1201172-13.0400391-12.9599609-21.1201172-31.040039-21.1201172-50.8798828 0 39.7597656-32.2402344 72-72 72h-96v-32c0-43.2802734 22.9599609-81.2001953 57.3598633-102.3203125 11.0400391 14 26.6401367 24.1601563 44.5600586 28.2402344l18.0800781 18.0800781 18.0800781-18.0800781c17.9199219-4.0800781 33.5200196-14.2402344 44.5600586-28.2402344 34.3999024 21.1201172 57.3598633 59.0400391 57.3598633 102.3203125z" fill="#683b11"/><path d="m248 240v32c-8.3999023 0-16.4899902-1.4499512-24-4.1201172v-27.8798828c0-36.9599609-16.75-70.0200195-43.0700684-92.0400391 3.5300293-3.1201172 6.7800293-6.5698242 9.7102051-10.2800293 34.3999024 21.1201172 57.3598633 59.0400391 57.3598633 102.3200684z" fill="#381b05"/><path d="m408 208v96h-96v-96l48-48 30.2402344 30.2397461z" fill="#c4d4de"/><path d="m504 208h-96l-17.7597656-17.7602539-30.2402344-30.2397461h96z" fill="#f05a29"/><path d="m408 208h96v96h-96z" fill="#efeeef"/><path d="m456.0000305 240h-.000061c-8.8365479 0-15.9999695 7.1634369-15.9999695 15.9999847v16.0000153h32v-16.0000153c0-8.8365478-7.1634216-15.9999847-15.9999695-15.9999847z" fill="#c4d4de"/><path d="m320.0000305 128h-.000061c-8.8365479 0-15.9999695 7.1634369-15.9999695 15.9999847v8.0000153h32v-8.0000153c0-8.8365478-7.1634216-15.9999847-15.9999695-15.9999847z" fill="#c4d4de"/><path d="m344 304h32v-80.0000153c0-8.8365478-7.1634216-15.9999847-15.9999695-15.9999847h-.000061c-8.8365479 0-15.9999695 7.1634369-15.9999695 15.9999847z" fill="#efeeef"/><path d="m328 352h65.8240051c7.8291931 0 14.1759949 6.3468018 14.1759949 14.1759949v.0000305c0 5.9091797-3.6655273 11.1985474-9.1984863 13.273407l-54.8015137 20.5505676h-48v-48.0000305c0-8.8365479 7.1634216-15.9999695 15.9999695-15.9999695h.000061c8.8365479 0 15.9999695 7.1634216 15.9999695 15.9999695z" fill="#fac8b2"/><path d="m424 160v-56l-32-32-32 32v56z" fill="#c4d4de"/><path d="m280 104h80l32-32h-80z" fill="#f05a29"/><path d="m344 72v-24l40-40 40 40v56l-32-32z" fill="#efeeef"/><path d="m384 8 40 40h64l-40-40z" fill="#f05a29"/><path d="m488 48v144l-32-32h-32v-112z" fill="#c4d4de"/><path d="m176 200c0 14.3489075-3.842804 28.5368958-11.0178833 40.4063721-6.804306 11.2561035-16.5307617 20.3916016-27.6707001 25.7445068-7.9919586 3.840271-16.6178894 5.8491211-25.3114166 5.8491211-.0000229 0-24 0-24 0 28.5290527 0 52.6838379-20.973999 60.9516144-49.9701538 3.7569275-13.1760101 14.7485351-22.0298462 27.0483551-22.0298462z" fill="#381b05"/><path d="m208 88c0 18.7998047-6.4799805 36.0800781-17.3598633 49.6796875-11.0400391 14-26.6401367 24.1601563-44.5600586 28.2402344l-18.0800781 18.0800781-18.0800781-18.0800781c-17.9199219-4.0800781-33.5200196-14.2402344-44.5600586-28.2402344-10.8798828-13.5996094-17.3598633-30.8798828-17.3598633-49.6796875 0-44.1601563 35.8398438-80 80-80s80 35.8398438 80 80z" fill="#ffec00"/><path d="m208 88c0 18.8000488-6.4799805 36.0800781-17.3598633 49.6799316-11.0400391 14-26.6401367 24.1599121-44.5600586 28.2399902l-18.0800781 18.0800782-18.0800781-18.0800781c-17.7700195-4.0498047-33.2600098-14.0698242-44.2797852-27.8898926 9.3598633 3.8498535 19.6098633 5.9699707 30.3598633 5.9699707 44.1799316 0 80-35.8200684 80-80 0-18.9101563-6.5700684-36.2900391-17.5400391-49.9799805 29.0700684 11.9799805 49.5400391 40.6000977 49.5400391 73.9799805z" fill="#fcc200"/><path d="m112 137.359375c-8.1953125 0-16.390625-3.1171875-22.625-9.359375l-12.6875-12.6875 22.625-22.625 12.6875 12.6875 33.375-33.375-12.6875-12.6875 22.625-22.625 12.6875 12.6875c12.4765625 12.4765625 12.4765625 32.7734375 0 45.25l-33.375 33.375c-6.234375 6.2421875-14.4296875 9.359375-22.625 9.359375z" fill="#e22526"/><g fill="#efeeef"><circle cx="456" cy="72" r="8"/><circle cx="456" cy="104" r="8"/><circle cx="456" cy="136" r="8"/></g></svg>