<svg height="512" viewBox="0 0 64 64" width="512" xmlns="http://www.w3.org/2000/svg"><path d="m61 41h-12a43.439 43.439 0 0 0 -1.36-11.14 19.9 19.9 0 0 0 6.58-3.86 19.914 19.914 0 0 1 6.78 15z" fill="#2488ff"/><path d="m49 41h12a19.914 19.914 0 0 1 -6.78 15 19.9 19.9 0 0 0 -6.58-3.86 43.439 43.439 0 0 0 1.36-11.14z" fill="#57a4ff"/><path d="m49 22.67a19.655 19.655 0 0 1 5.22 3.33 19.9 19.9 0 0 1 -6.58 3.86c-1.43-5.35-3.87-8.86-6.64-8.86a18.862 18.862 0 0 1 2 .1 19.667 19.667 0 0 1 6 1.57z" fill="#57a4ff"/><path d="m47.64 52.14a19.9 19.9 0 0 1 6.58 3.86 19.922 19.922 0 0 1 -13.22 5c2.77 0 5.21-3.51 6.64-8.86z" fill="#2488ff"/><path d="m49 11v11.67a19.667 19.667 0 0 0 -6-1.57v-8.1a2.006 2.006 0 0 0 -2-2z" fill="#57a4ff"/><path d="m49 5v6h-40v-6a2.006 2.006 0 0 1 2-2h36a2.006 2.006 0 0 1 2 2z" fill="#ffb655"/><path d="m49 41h-16a43.439 43.439 0 0 1 1.36-11.14 19.908 19.908 0 0 0 13.28 0 43.439 43.439 0 0 1 1.36 11.14z" fill="#57a4ff"/><path d="m33 41h16a43.439 43.439 0 0 1 -1.36 11.14 19.908 19.908 0 0 0 -13.28 0 43.439 43.439 0 0 1 -1.36-11.14z" fill="#2488ff"/><path d="m41 21c2.77 0 5.21 3.51 6.64 8.86a19.908 19.908 0 0 1 -13.28 0c1.43-5.35 3.87-8.86 6.64-8.86z" fill="#2488ff"/><path d="m47.64 52.14c-1.43 5.35-3.87 8.86-6.64 8.86s-5.21-3.51-6.64-8.86a19.908 19.908 0 0 1 13.28 0z" fill="#57a4ff"/><path d="m43 19v2.1a18.862 18.862 0 0 0 -2-.1 20.014 20.014 0 0 0 -20 20 20.248 20.248 0 0 0 .4 4h-16.4a2.006 2.006 0 0 1 -2-2v-24z" fill="#46f8ff"/><path d="m43 13v6h-40v-6a2.006 2.006 0 0 1 2-2h36a2.006 2.006 0 0 1 2 2z" fill="#ff7956"/><path d="m41 21c-2.77 0-5.21 3.51-6.64 8.86a19.9 19.9 0 0 1 -6.58-3.86 19.922 19.922 0 0 1 13.22-5z" fill="#57a4ff"/><path d="m34.36 52.14c1.43 5.35 3.87 8.86 6.64 8.86a19.922 19.922 0 0 1 -13.22-5 19.9 19.9 0 0 1 6.58-3.86z" fill="#2488ff"/><path d="m27.78 26a19.9 19.9 0 0 0 6.58 3.86 43.439 43.439 0 0 0 -1.36 11.14h-12a19.914 19.914 0 0 1 6.78-15z" fill="#2488ff"/><path d="m34.36 52.14a19.9 19.9 0 0 0 -6.58 3.86 19.887 19.887 0 0 1 -6.38-11 20.248 20.248 0 0 1 -.4-4h12a43.439 43.439 0 0 0 1.36 11.14z" fill="#57a4ff"/><path d="m6 14h2v2h-2z"/><path d="m10 14h2v2h-2z"/><path d="m14 14h2v2h-2z"/><path d="m38 14h2v2h-2z"/><path d="m12 6h2v2h-2z"/><path d="m16 6h2v2h-2z"/><path d="m20 6h2v2h-2z"/><path d="m44 6h2v2h-2z"/><path d="m50 22.055v-17.055a3 3 0 0 0 -3-3h-36a3 3 0 0 0 -3 3v5h-3a3 3 0 0 0 -3 3v30a3 3 0 0 0 3 3h15.627a20.986 20.986 0 1 0 29.373-23.945zm9.949 17.945h-9.97a44.172 44.172 0 0 0 -1.163-9.528 20.965 20.965 0 0 0 5.345-3.144 18.925 18.925 0 0 1 5.788 12.672zm-18.949 20c-1.945 0-4.016-2.709-5.4-7.2a18.7 18.7 0 0 1 10.8 0c-1.384 4.491-3.455 7.2-5.4 7.2zm7.276-6.53a18.993 18.993 0 0 1 4.346 2.53 18.913 18.913 0 0 1 -7.284 3.484 18.745 18.745 0 0 0 2.938-6.014zm-11.614 6.011a18.913 18.913 0 0 1 -7.284-3.481 18.993 18.993 0 0 1 4.346-2.527 18.745 18.745 0 0 0 2.938 6.008zm4.338-9.481a20.958 20.958 0 0 0 -5.921.865 42.426 42.426 0 0 1 -1.058-8.865h13.958a42.426 42.426 0 0 1 -1.058 8.865 20.958 20.958 0 0 0 -5.921-.865zm-18.949-10a18.925 18.925 0 0 1 5.788-12.672 20.965 20.965 0 0 0 5.345 3.144 44.172 44.172 0 0 0 -1.163 9.528zm24.349-10.8a18.7 18.7 0 0 1 -10.8 0c1.382-4.5 3.453-7.2 5.4-7.2s4.016 2.709 5.4 7.2zm-1.06-6.685a18.913 18.913 0 0 1 7.282 3.485 18.993 18.993 0 0 1 -4.346 2.527 18.745 18.745 0 0 0 -2.938-6.008zm-11.616 6.015a18.993 18.993 0 0 1 -4.346-2.53 18.913 18.913 0 0 1 7.284-3.484 18.745 18.745 0 0 0 -2.938 6.014zm.3 11.47a42.426 42.426 0 0 1 1.058-8.865 20.7 20.7 0 0 0 11.842 0 42.426 42.426 0 0 1 1.055 8.865zm9.976-19.76v-7.24a2.966 2.966 0 0 0 -.184-1h4.184v9.225a20.81 20.81 0 0 0 -4-.985zm-34-15.24a1 1 0 0 1 1-1h36a1 1 0 0 1 1 1v5h-38zm-5 39a1 1 0 0 1 -1-1v-23h29v-2h-29v-5a1 1 0 0 1 1-1h36a1 1 0 0 1 1 1v7.051c-.334-.016-.662-.051-1-.051a20.843 20.843 0 0 0 -20.76 24zm17.051-2h9.97a44.172 44.172 0 0 0 1.163 9.528 20.965 20.965 0 0 0 -5.345 3.144 18.925 18.925 0 0 1 -5.788-12.672zm32.11 12.672a20.965 20.965 0 0 0 -5.345-3.144 44.172 44.172 0 0 0 1.163-9.528h9.97a18.925 18.925 0 0 1 -5.788 12.672z"/></svg>